<?xml version="1.0" standalone="no"?>
<!DOCTYPE svg PUBLIC "-//W3C//DTD SVG 20010904//EN"
 "http://www.w3.org/TR/2001/REC-SVG-20010904/DTD/svg10.dtd">
<svg version="1.0" xmlns="http://www.w3.org/2000/svg"
 width="992.000000pt" height="992.000000pt" viewBox="0 0 992.000000 992.000000"
 preserveAspectRatio="xMidYMid meet">
<metadata>
Created by potrace 1.14, written by Peter Selinger 2001-2017
</metadata>
<g transform="translate(0.000000,992.000000) scale(0.100000,-0.100000)"
fill="#000000" stroke="none">
<path d="M1067 9892 c-13 -3 -17 -14 -17 -45 -1 -59 -1 -9786 -1 -9819 l1 -28
835 0 c661 0 835 3 836 13 1 12 1 66 -1 102 0 11 1 46 3 78 1 32 -1 61 -5 63
-5 3 -5 10 -1 17 3 6 6 29 5 51 -2 23 -2 46 -2 51 0 6 1 55 3 110 2 55 -1 106
-6 112 -5 7 -6 13 -1 13 5 0 9 29 9 65 0 36 -4 65 -8 65 -5 0 -5 5 -1 12 4 7
7 30 6 52 -2 23 -2 46 -2 51 1 37 1 204 1 220 -1 11 0 46 2 78 1 32 -1 61 -5
63 -5 3 -5 10 -1 17 3 6 6 29 5 51 -2 23 -2 46 -2 51 0 6 1 55 3 110 2 55 -1
106 -6 113 -5 6 -6 12 -1 12 5 0 9 29 9 65 0 36 -4 65 -8 65 -5 0 -5 5 -1 12
4 7 7 30 6 52 -2 23 -2 46 -2 51 1 37 1 204 1 220 -1 11 0 46 2 78 1 32 -1 61
-5 63 -5 3 -5 10 -1 17 10 16 10 180 0 195 -5 6 -6 12 -1 12 5 0 9 31 9 70 0
38 -4 70 -8 70 -4 0 -4 8 0 18 11 21 10 133 0 150 -5 6 -5 12 0 12 4 0 8 31 8
70 0 38 -4 70 -8 70 -4 0 -4 8 0 18 11 21 10 133 0 150 -5 6 -5 12 0 12 4 0 8
31 8 70 0 38 -4 70 -8 70 -5 0 -5 5 -1 12 4 6 8 41 8 77 l1 65 1485 2 c817 2
1510 5 1540 8 30 2 75 7 100 10 25 3 77 9 115 12 39 3 72 7 75 9 3 2 33 7 65
11 92 11 100 12 100 14 0 2 9 4 20 5 39 6 130 26 225 50 36 9 72 18 80 20 8 2
15 4 15 5 0 1 10 3 22 6 37 7 235 74 308 106 39 16 71 29 73 28 5 -2 317 153
322 160 3 4 16 13 30 20 27 14 215 136 240 157 297 237 446 386 625 623 27 36
53 67 57 68 4 2 8 10 8 17 0 8 6 20 12 27 20 22 58 77 58 84 0 4 11 22 25 40
14 18 25 36 25 41 0 5 11 25 25 46 14 20 23 37 20 37 -3 0 5 17 18 38 24 38
133 280 142 312 5 20 39 117 44 125 3 6 7 15 8 20 1 6 16 60 33 120 17 61 32
119 34 130 2 11 9 39 15 61 6 23 13 54 15 70 2 16 8 56 14 89 6 33 14 83 17
110 3 28 8 64 11 80 5 36 13 122 20 230 11 168 5 557 -11 680 -3 22 -7 65 -9
95 -2 30 -7 71 -10 90 -3 19 -7 49 -10 65 -2 17 -7 46 -10 65 -3 19 -8 46 -10
60 -4 22 -19 98 -32 155 -2 11 -6 29 -8 40 -29 138 -114 402 -183 564 -65 152
-188 392 -205 399 -5 2 -8 8 -8 13 0 11 -48 86 -73 113 -9 11 -17 24 -17 29 0
4 -6 14 -12 21 -7 7 -40 48 -73 91 -131 171 -390 412 -580 538 -38 26 -75 51
-82 57 -7 5 -17 10 -23 10 -5 0 -10 4 -10 9 0 5 -8 11 -17 15 -10 3 -49 24
-88 46 -73 42 -271 140 -283 140 -4 0 -36 12 -72 26 -100 40 -102 41 -155 59
-76 24 -286 81 -340 90 -11 2 -38 8 -60 14 -22 5 -41 10 -42 11 -2 0 -4 0 -5
1 -2 0 -19 2 -38 4 -19 2 -45 6 -58 9 -36 8 -142 20 -184 21 -21 0 -38 2 -38
5 0 3 -25 7 -56 8 -31 2 -71 5 -88 8 -17 2 -97 7 -178 10 -147 6 -4600 12
-4631 6z m4358 -1316 c134 -13 192 -20 245 -32 14 -3 43 -8 64 -10 22 -3 47
-9 55 -14 9 -4 32 -11 52 -14 36 -5 53 -10 87 -23 9 -3 20 -7 25 -8 4 -2 8 -3
10 -5 1 -1 9 -3 17 -5 55 -11 269 -112 332 -156 14 -11 31 -19 36 -19 6 0 12
-3 14 -7 2 -5 30 -28 63 -53 64 -47 214 -193 255 -248 14 -19 30 -39 37 -46
46 -50 161 -256 224 -401 15 -34 77 -231 83 -261 9 -52 17 -89 21 -104 9 -31
32 -188 42 -280 10 -93 9 -492 -1 -580 -4 -36 -14 -105 -22 -155 -8 -49 -17
-101 -19 -115 -2 -14 -8 -36 -13 -50 -5 -14 -10 -27 -10 -30 0 -3 -6 -25 -13
-50 -7 -25 -14 -52 -15 -60 -2 -8 -7 -23 -13 -35 -5 -11 -19 -47 -31 -80 -25
-69 -105 -233 -126 -256 -8 -8 -14 -19 -14 -23 0 -4 -11 -22 -25 -40 -14 -18
-25 -38 -25 -44 0 -7 -4 -12 -8 -12 -5 0 -24 -21 -42 -47 -52 -74 -276 -293
-299 -293 -5 0 -11 -3 -13 -8 -10 -24 -233 -149 -339 -190 -41 -16 -83 -33
-94 -37 -11 -5 -24 -7 -29 -6 -4 1 -13 -2 -20 -7 -10 -9 -62 -23 -83 -24 -5 0
-15 -4 -23 -8 -8 -4 -32 -11 -54 -14 -21 -4 -42 -8 -46 -11 -3 -2 -22 -7 -41
-10 -19 -3 -45 -7 -59 -10 -208 -37 -314 -39 -1630 -40 l-1255 0 0 63 c0 34
-3 62 -7 62 -4 0 -4 11 1 23 5 13 5 30 1 37 -5 8 -6 18 -3 24 10 16 10 200 0
214 -5 6 -6 12 -1 12 5 0 9 29 9 65 0 36 -4 65 -8 65 -5 0 -5 5 -1 12 4 7 7
30 6 52 -2 23 -2 46 -2 51 1 37 1 204 1 220 -1 11 0 46 2 78 1 32 -1 61 -5 63
-5 3 -5 10 -1 17 3 6 6 29 5 51 -2 23 -2 46 -2 51 0 6 1 55 3 110 2 55 -1 106
-6 113 -5 6 -6 12 -1 12 5 0 9 29 9 65 0 36 -4 65 -8 65 -5 0 -5 5 -1 12 4 7
7 30 6 52 -2 23 -2 46 -2 51 1 37 1 204 1 220 -1 11 0 46 2 78 1 32 -1 61 -5
63 -5 3 -5 10 -1 17 3 6 6 29 5 51 -2 23 -2 46 -2 51 0 6 1 55 3 110 2 55 -1
106 -6 113 -5 6 -6 12 -1 12 11 0 11 91 0 108 -4 7 -4 12 1 12 4 0 8 29 8 65
0 36 -4 65 -9 65 -5 0 -5 6 0 13 5 6 8 37 7 67 -3 70 -3 66 0 185 2 55 -1 106
-6 113 -5 6 -6 12 -1 12 5 0 9 29 9 65 0 36 -4 65 -8 65 -5 0 -5 5 -1 12 4 7
7 30 6 52 -2 23 -2 46 -2 51 1 39 1 204 0 220 0 11 1 39 3 63 2 23 -1 42 -6
42 -4 0 -5 5 -1 12 10 15 11 178 1 178 -4 0 -4 8 1 18 4 9 7 49 7 88 l-2 70
1311 -1 c721 -1 1347 -5 1391 -9z"/>
</g>
</svg>
