<svg xmlns="http://www.w3.org/2000/svg" version="1.1" xmlns:xlink="http://www.w3.org/1999/xlink" width="512" height="512" x="0" y="0" viewBox="0 0 512 512" style="enable-background:new 0 0 512 512" xml:space="preserve" class=""><g transform="matrix(1.0799999999999994,0,0,1.0799999999999994,-20.479959716796714,-20.479959716796714)"><linearGradient id="a" x1="256" x2="256" y1="491" y2="21" gradientUnits="userSpaceOnUse"><stop offset="0" stop-color="#8d3fff"></stop><stop offset="1" stop-color="#00b4d1"></stop></linearGradient><rect width="469.999" height="469.999" x="21" y="21" fill="url(#a)" rx="73.436" opacity="1" data-original="url(#a)" class=""></rect><path fill="#ffffff" fill-rule="evenodd" d="M374.759 304.044c-6.917 0-12.517 5.6-12.517 12.47v24.798c0 13.599-11.011 24.61-24.61 24.61H174.351c-13.599 0-24.657-11.011-24.657-24.61v-24.798c0-6.87-5.553-12.47-12.47-12.47s-12.517 5.6-12.517 12.47v24.798c0 27.386 22.257 49.643 49.643 49.643h163.282c27.386 0 49.643-22.257 49.643-49.643v-24.798c0-6.87-5.6-12.47-12.517-12.47zm-190.903-45.267c-4.329-5.411-3.388-13.27 2.023-17.552s13.27-3.388 17.552 2.023l40.044 50.49V133.563c0-6.917 5.6-12.47 12.517-12.47s12.517 5.553 12.517 12.47v160.176l40.044-50.49c4.282-5.411 12.141-6.305 17.552-2.023s6.305 12.14 2.023 17.552L265.78 337.36c-2.353 3.012-5.976 4.753-9.787 4.753s-7.435-1.741-9.787-4.753l-62.348-78.582z" opacity="1" data-original="#ffffff"></path></g></svg>