<svg xmlns="http://www.w3.org/2000/svg" version="1.1" xmlns:xlink="http://www.w3.org/1999/xlink" width="512" height="512" x="0" y="0" viewBox="0 0 20 20" style="enable-background:new 0 0 512 512" xml:space="preserve"><g><linearGradient id="a" x1="10" x2="10" y1="0" y2="20" gradientUnits="userSpaceOnUse"><stop offset="0" stop-color="#ee9ae5"></stop><stop offset="1" stop-color="#5961f9"></stop></linearGradient><path fill="url(#a)" fill-rule="evenodd" d="M0 10c0 5.514 4.486 10 10 10s10-4.486 10-10S15.514 0 10 0 0 4.486 0 10zm5 0a1 1 0 0 1 1-1h3V6a1 1 0 1 1 2 0v3h3a1 1 0 1 1 0 2h-3v3a1 1 0 1 1-2 0v-3H6a1 1 0 0 1-1-1z" clip-rule="evenodd" opacity="1" data-original="url(#a)"></path></g></svg>