<svg width="397" height="56" viewBox="0 0 397 56" fill="none" xmlns="http://www.w3.org/2000/svg">
<path d="M0.587891 1.57715H28.752C32.8535 1.57715 36.4082 2.02148 39.416 2.91016C42.4238 3.79883 44.9189 5.08626 46.9014 6.77246C48.8838 8.43587 50.3535 10.4753 51.3105 12.8906C52.2904 15.306 52.7803 18.029 52.7803 21.0596C52.7803 23.9079 52.3018 26.5397 51.3447 28.9551C50.3877 31.3704 48.918 33.4668 46.9355 35.2441C44.9759 36.9987 42.4922 38.3773 39.4844 39.3799C36.4766 40.3597 32.9219 40.8496 28.8203 40.8496L11.4229 40.8154V55H0.587891V1.57715ZM29.0254 31.4502C31.0762 31.4502 32.8649 31.2109 34.3916 30.7324C35.9411 30.2311 37.2285 29.5361 38.2539 28.6475C39.3021 27.736 40.0768 26.6423 40.5781 25.3662C41.1022 24.0674 41.3643 22.6318 41.3643 21.0596C41.3643 17.8923 40.3275 15.4313 38.2539 13.6768C36.2031 11.8994 33.127 11.0107 29.0254 11.0107H11.4229V31.4502H29.0254Z" fill="#DF1E7B"/>
<path d="M61.4961 28.1348C61.4961 24.1016 62.2367 20.4102 63.7178 17.0605C65.1989 13.7109 67.2725 10.8398 69.9385 8.44727C72.6273 6.0319 75.8402 4.16341 79.5771 2.8418C83.3369 1.52018 87.4954 0.859375 92.0527 0.859375C96.5872 0.859375 100.734 1.52018 104.494 2.8418C108.254 4.16341 111.467 6.0319 114.133 8.44727C116.822 10.8398 118.907 13.7109 120.388 17.0605C121.869 20.4102 122.609 24.1016 122.609 28.1348C122.609 32.1908 121.869 35.9163 120.388 39.3115C118.907 42.6839 116.822 45.5892 114.133 48.0273C111.467 50.4655 108.254 52.3682 104.494 53.7354C100.734 55.0798 96.5872 55.752 92.0527 55.752C87.4954 55.752 83.3369 55.0798 79.5771 53.7354C75.8402 52.3682 72.6273 50.4655 69.9385 48.0273C67.2725 45.5892 65.1989 42.6839 63.7178 39.3115C62.2367 35.9163 61.4961 32.1908 61.4961 28.1348ZM72.3311 28.1348C72.3311 30.8919 72.821 33.3757 73.8008 35.5859C74.8034 37.7962 76.182 39.6875 77.9365 41.2598C79.7139 42.8092 81.7988 44.0055 84.1914 44.8486C86.6068 45.6917 89.2272 46.1133 92.0527 46.1133C94.8783 46.1133 97.4873 45.6917 99.8799 44.8486C102.295 44.0055 104.38 42.8092 106.135 41.2598C107.889 39.6875 109.268 37.7962 110.271 35.5859C111.273 33.3757 111.774 30.8919 111.774 28.1348C111.774 25.3776 111.273 22.9053 110.271 20.7178C109.268 18.5303 107.889 16.6846 106.135 15.1807C104.38 13.654 102.295 12.4919 99.8799 11.6943C97.4873 10.8968 94.8783 10.498 92.0527 10.498C89.2272 10.498 86.6068 10.8968 84.1914 11.6943C81.7988 12.4919 79.7139 13.654 77.9365 15.1807C76.182 16.6846 74.8034 18.5303 73.8008 20.7178C72.821 22.9053 72.3311 25.3776 72.3311 28.1348Z" fill="#DF1E7B"/>
<path d="M133.273 1.57715H144.177V55H133.273V1.57715Z" fill="#DF1E7B"/>
<path d="M157.951 1.57715H168.786L202.077 19.0088V1.57715H212.912V55H202.077V30.4932L168.786 13.1641V55H157.951V1.57715Z" fill="#DF1E7B"/>
<path d="M244.118 11.0791H224.396V1.57715H274.675V11.0791H254.953V55H244.118V11.0791Z" fill="#DF1E7B"/>
<path d="M286.588 1.57715H332.081V11.0791H297.423V21.7432H328.116V30.6641H297.423V45.5322H332.799V55H286.588V1.57715Z" fill="black"/>
<path d="M344.83 1.57715H372.003C376.104 1.57715 379.659 2.01009 382.667 2.87598C385.675 3.71908 388.17 4.94954 390.152 6.56738C392.135 8.18522 393.604 10.1562 394.562 12.4805C395.541 14.8047 396.031 17.4365 396.031 20.376C396.031 22.3584 395.792 24.2497 395.313 26.0498C394.835 27.8271 394.094 29.4678 393.092 30.9717C392.112 32.4756 390.87 33.82 389.366 35.0049C387.862 36.167 386.096 37.1354 384.068 37.9102L395.689 55H382.428L372.379 39.8242H372.071L355.665 39.79V55H344.83V1.57715ZM372.276 30.4248C374.327 30.4248 376.116 30.1855 377.643 29.707C379.192 29.2285 380.479 28.5563 381.505 27.6904C382.553 26.8245 383.328 25.7764 383.829 24.5459C384.353 23.2926 384.615 21.9027 384.615 20.376C384.615 17.391 383.59 15.0895 381.539 13.4717C379.488 11.8311 376.401 11.0107 372.276 11.0107H355.665V30.4248H372.276Z" fill="black"/>
</svg>
