<svg id="Flat" height="512" viewBox="0 0 16 16" width="512" xmlns="http://www.w3.org/2000/svg" xmlns:xlink="http://www.w3.org/1999/xlink"><linearGradient id="New_Gradient_Swatch" gradientUnits="userSpaceOnUse" x1="1.233" x2="14.768" y1="1.233" y2="14.768"><stop offset="0" stop-color="#1283ff"/><stop offset="1" stop-color="#d21aff"/></linearGradient><path d="m9.2656 9.2682a2.6231 2.6231 0 1 1 .0026-.0027l-.0016.0011zm6.2344-6.2682v10a2.5009 2.5009 0 0 1 -2.5 2.5h-10a2.5009 2.5009 0 0 1 -2.5-2.5v-10a2.5009 2.5009 0 0 1 2.5-2.5h10a2.5009 2.5009 0 0 1 2.5 2.5zm-3.6465 8.1465-1.56-1.56a3.4662 3.4662 0 0 0 .7065-2.0865 3.5 3.5 0 1 0 -3.5 3.5 3.4662 3.4662 0 0 0 2.0863-.7067l1.56 1.56a.5.5 0 0 0 .707-.707z" fill="url(#New_Gradient_Swatch)"/></svg>