<svg xmlns="http://www.w3.org/2000/svg" version="1.1" xmlns:xlink="http://www.w3.org/1999/xlink" width="512" height="512" x="0" y="0" viewBox="0 0 32 32" style="enable-background:new 0 0 512 512" xml:space="preserve" class=""><g transform="matrix(1.4999999999999993,0,0,1.4999999999999993,-8.314671277999864,-7.699583530426009)"><linearGradient id="a" x1="22.372" x2="22.372" y1=".375" y2="30.875" gradientTransform="rotate(-45 22.513 11.491)" gradientUnits="userSpaceOnUse"><stop offset="0" stop-color="#2e74ff"></stop><stop offset="1" stop-color="#ff52a8"></stop></linearGradient><linearGradient xlink:href="#a" id="b" x1="16.918" x2="16.918" y1=".375" y2="30.875"></linearGradient><linearGradient xlink:href="#a" id="c" x1="8.999" x2="8.999" y1=".375" y2="30.875"></linearGradient><g data-name="18. curvature tool"><path fill="url(#a)" d="M19.876 9.507h5.276a.683.683 0 0 1 .683.683v3.275h-6.642V10.19a.683.683 0 0 1 .683-.683z" transform="rotate(45 22.517 11.483)" opacity="1" data-original="url(#a)"></path><path fill="url(#b)" d="m22.345 15.089-3.434-3.434a1.146 1.146 0 0 0-1.4-.174L14.458 13.3a1.146 1.146 0 0 0-.488.587L11.227 21.3a1.115 1.115 0 0 0 .142 1.048l5.213-5.212a.541.541 0 1 1 .283.283l-5.213 5.213a1.116 1.116 0 0 0 1.048.142l7.412-2.743a1.146 1.146 0 0 0 .587-.488l1.82-3.055a1.146 1.146 0 0 0-.174-1.399z" opacity="1" data-original="url(#b)"></path><path fill="url(#c)" d="M10.5 23.063a.562.562 0 0 1-.089-.008A3.841 3.841 0 0 1 7.275 20.9c-.773-1.83.2-4.329 1.36-6.058a4.878 4.878 0 0 0 .6-4.878c-.241-.443-.563-.718-.843-.718h-.017a.5.5 0 0 1-.009-1 1.974 1.974 0 0 1 1.748 1.24 5.8 5.8 0 0 1-.65 5.914c-.971 1.442-1.886 3.646-1.268 5.11a2.916 2.916 0 0 0 2.393 1.556.5.5 0 0 1-.088.992z" opacity="1" data-original="url(#c)"></path></g></g></svg>